<svg xmlns:rdf="http://www.w3.org/1999/02/22-rdf-syntax-ns#"
    xmlns="http://www.w3.org/2000/svg"
    xmlns:cc="http://creativecommons.org/ns#"
    xmlns:dc="http://purl.org/dc/elements/1.1/"
    xmlns:svg="http://www.w3.org/2000/svg"
    xmlns:inkscape="http://www.inkscape.org/namespaces/inkscape"
    xmlns:sodipodi="http://sodipodi.sourceforge.net/DTD/sodipodi-0.dtd"
    xmlns:ns1="http://sozi.baierouge.fr"
    xmlns:xlink="http://www.w3.org/1999/xlink" id="svg2" viewBox="0 0 744.09 1052.4" version="1.1">
    <g id="layer1">
        <path id="path2985" d="m508.57 390.93a130 127.14 0 1 1 -260 0 130 127.14 0 1 1 260 0z" fill="#2b0000"/>
        <rect id="rect2987" height="94.286" width="114.29" y="498.08" x="320" fill="#2b0000"/>
        <path id="path2989" d="m345.71 415.22c2.8571 60 14.286 68.571 14.286 68.571l40-2.8571-8.5714-65.714 51.429-17.143-11.429-48.571-40 17.143-31.43-11.43-28.571 22.857-34.286-8.5714 31.429 37.143z" stroke="#000" strokeWidth="1px" fill="none"/>
        <path id="path3107" d="m209.55 493.98c-9.5888 6.4384-21.206 9.242-32.366 11.673-2.1069 0.69468-4.4251 0.27776-6.5524 0.84763-0.89775 0.24048-1.696 0.76152-2.556 1.1141-3.5192 1.443-7.07 2.7982-10.652 4.0765-4.4444 1.4004-8.7714 3.0827-13.293 4.2602-3.4912 0.90921-2.3168 1.2995-3.9951 0.49507-2.4509 0.10627-0.71466-0.0675-5.0406 1.4127-2.4265 1.0734-17.606-33.243-15.18-34.316-2.5264 1.3552-2.2527 1.2235 0.7732-0.48173 1.2302-0.60135 2.4092-1.3213 3.6907-1.804 0.67294-0.25349 1.4195-0.23446 2.1225-0.38573 3.6047-0.77564 7.1321-1.4499 10.317-3.4775 7.199-2.606 14.54-4.7739 21.249-8.5154 7.0264-2.4839 15.008-5.573 22.278-6.988 1.7143-0.33365 3.4826-0.28587 5.2141-0.51436 1.6051-0.21182 3.1932-0.53721 4.7898-0.80581 2.3625-1.3577 21.563 32.053 19.2 33.41z"/>
        <path id="path3109" d="m174.39 395.31c-2.2937 0.16894-7.2638 0.61335-9.3903 0.40474-2.0677-0.20284-4.072-0.82895-6.116-1.2007-4.5871-0.83424-9.104-1.6477-13.64-2.7317-0.75596-0.17841-1.4984-0.429-2.2679-0.53523-0.43546-0.0601-0.88535 0.11707-1.3182 0.0401-2.6955-0.47907-6.0903-2.6329-8.8165-2.0214-1.4514 0.0547-3.1185 0.87114-4.5743 0.62788-3.1693-0.52958-6.3756-1.7839-9.5363-2.4912-3.9779 0.18793-7.1566-2.2739-10.748-3.5774-2.2979-1.38 17.218-33.877 19.516-32.497 4.1801 1.4882 1.2661-0.0813 2.0545-0.0681 0.52809 0.009 4.8855 1.0854 5.5373 1.2423 0.19075 0.0437 2.8097 0.72375 3.1026 0.56388 0.18182-0.0992-0.42048-0.55318-0.21547-0.5829 2.8224-0.40921 5.91 0.87125 8.6696 1.1714 1.2786 0.36061 2.5471 0.91669 3.9076 0.83092 0.598-0.0377 1.0944-0.57799 1.693-0.60398 2.5355-0.11012 5.068 0.52879 7.6084 0.28126 5.0116 0.33785 9.8068 1.0832 14.767 1.8266 4.6854 0.70223 9.4326 1.1565 13.814 3.1629 2.5568 0.9932-11.489 37.151-14.046 36.158z"/>
        <path id="path3111" d="m201.73 289.75c-0.8595-0.60468-1.8007-1.1074-2.5785-1.814-1.3421-1.2195-2.4776-2.6493-3.7528-3.9386-4.8429-4.8962-9.5438-9.9196-14.321-14.887-2.9789-2.188-5.9606-4.3773-8.8353-6.7023-1.7266-1.3964-3.2845-3.0655-5.4722-3.6892-4.8609-3.2468-8.6315-7.4977-11.822-12.321-1.283-2.3254 31.603-20.47 32.886-18.144-2.7267-4.3338 0.20868 0.56133 0.25804-0.26084 0.0376-0.62641-1.4564-0.9649-1.1336-1.503 2.17-3.6176 0.55743 4.4111 2.897 0.84251 8.2952 4.4683 16.645 9.0929 23.559 15.586 9.0875 8.0977 17.283 17.312 22.511 28.419 1.302 2.4181-32.894 20.831-34.196 18.413z"/>
        <path id="path3113" d="m336.88 219.29c-0.73176-8.4775 0.80295-16.961 3.0765-25.101 1.3376-2.7598 1.2885-4.5916 0.92523-7.466-1.3343-7.2163-1.1135-12.898 0.87275-20.028-0.1725-1.3054 1.4346-2.9642 1.6644-4.3121 0.0475-0.27852-0.24817-0.51596-0.2952-0.79456-0.0631 0.44729 0.10718 1.001-0.18925 1.3419-0.16661 0.19159-0.32756-0.39586-0.43231-0.62715-0.67531-1.4912-1.126-3.2647-1.5822-4.8044-0.67778-2.6423 36.69-12.228 37.368-9.5853 1.3743 4.1446 2.903 8.2332 3.0795 12.668-0.004 5.2942-0.44245 10.62-2.4636 15.579-0.0548-0.27418-0.05-1.1166-0.0547-0.83703-0.0428 2.516-0.2238 5.0534 0.0328 7.5549 0.67045 5.7662 0.85747 11.545 0.4947 17.345-0.7095 8.2009-1.7306 16.59-4.4142 24.383-0.37597 2.6928-38.458-2.6243-38.082-5.3171z"/>
        <path id="path3117" d="m470.52 225.63c7.4215-11.224 17.4-20.393 27.245-29.447 5.6305-5.3022 2.9074-2.8373 8.1417-7.4251 1.6569-2.413 35.782 21.019 34.125 23.432-4.2335 6.2949-1.8957 3.0252-7.0854 9.7574-9.6436 11.772-20.843 22.691-34.282 30.043-1.864 1.9901-30.008-24.37-28.144-26.361z"/>
        <path id="path3121" d="m548.13 340.84c6.3362-5.0552 14.105-7.5784 21.752-9.8601 3.3958-0.51985 6.2676-2.857 9.571-3.6204 4.1545-0.95995-4.513 2.1132-0.68407 0.72432 5.098-2.5664 1.719-1.046 0.96978-0.12442-0.27144 0.3339 0.73843-0.44206 1.1058-0.66613 8.5952-5.2426-1.624 1.3309 3.9437-2.1739 3.0736-1.4167 4.1473-2.5962 7.6127-4.1815 0.17044-0.078-0.19128 0.32237-0.28692 0.48355 0.50903-0.28791 1.0181-0.57583 1.5271-0.86375 9.3817-5.7214-1.4673 1.1753 3.9279-1.901 2.1029-1.6503 25.442 28.089 23.339 29.739-0.94691 0.46851-4.9753 4.1224-4.0083 1.9782-2.1036 1.0211-0.7367 0.2975-3.9448 2.4429-0.17189 0.0845 0.0726-0.37612 0.10885-0.56417-0.35621 0.17702-0.71242 0.35405-1.0686 0.53107-0.96353 0.61458-1.803 1.4287-2.8204 1.9495-0.1415 0.0724-0.0435-0.31492-0.0653-0.47237-2.3011 1.2071-0.82977 0.37182-4.2606 2.7583-0.13093 0.0696-0.0383-0.43596-0.18339-0.40522-1.9552 0.41426-3.3518 2.1922-5.1325 3.0997-0.13408 0.0683-0.002-0.30097-0.003-0.45146-1.5967 0.72779-3.0447 1.7882-4.6994 2.3721-0.48415 0.17084 0.82489-0.61979 1.1771-0.99335 0.7352-0.77976-1.8465 1.0886-2.7585 1.6515-1.875 1.3397-4.2871 3.1264-6.2368 4.1591-1.1239 0.5953-2.371 0.9249-3.5281 1.4529-4.0374 1.8426-7.6981 3.6928-12.239 3.931-2.1917 1.6345-25.307-29.361-23.116-30.995z"/>
        <path id="path3123" d="m551.11 442.38c10.283 0.53953 20.079 4.7564 29.379 8.914 2.958 1.4499 5.7831 3.4002 8.7998 4.7415 0.78643 1.4845 1.1034-0.19922 1.6452-0.10731 0.88693 0.15044 1.7156 0.54193 2.5735 0.81289 0.55868 0.01 1.131-0.0942 1.676 0.0289 1.2478 0.28182 2.4144 0.85734 3.6536 1.1748 2.2284 0.57077 2.829 0.31637 5.0172 0.74919 0.39321 0.0778 6.2212 1.5002 6.9241 1.6713 4.7269 2.2882 8.9861 4.6932 13.177 7.5926-0.24164-0.28663-0.48327-0.57327-0.72491-0.85991 2.2359 1.4174-17.81 33.038-20.046 31.62l-2.7501-1.6534c-3.3436-1.0948 3.5398 1.0395 0.29464 0.80618-2.4553-0.17656-4.6907-2.7675-7.3831-1.8813-5.6848-1.4284-11.272-3.1227-16.874-4.8011-5.8129-0.83186-11.037-4.1887-16.95-4.757-9.511-2.6421-19-5.7293-27.612-10.642-2.3624-1.3577 16.838-34.768 19.2-33.41z"/>
        <path id="path3125" d="m360 372.36c3.0083 1.0028 0.13248 4.5499-1.6667 5-4.8756 1.2198-8.3915-4.0484-8.3333-8.3333 0.10411-7.6647 7.9251-12.467 15-11.667 10.383 1.1746 16.625 11.841 15 21.667-2.1662 13.097-15.768 20.816-28.333 18.333-15.812-3.1248-25.024-19.701-21.667-35 4.0666-18.529 23.637-29.242 41.667-25 21.248 4.9987 33.465 27.574 28.333 48.333-5.9247 23.968-31.513 37.692-55 31.667-26.688-6.8467-41.922-35.452-35-61.667 7.7659-29.409 39.392-46.155 68.333-38.333 32.13 8.683 50.388 43.333 41.667 75" transform="translate(10 23.333)" stroke="#000" strokeWidth="1px" fill="#fff"/>
        <path id="path3181" fill="#f60" d="m132.14 511.6c-4.6532-7.1965-11.469-25.865-10.195-27.926 0.6368-1.0304 2.4817-1.8734 4.0999-1.8734 1.6181 0 11.792-3.4994 22.609-7.7764s24.447-8.915 30.289-10.307c10.195-2.4287 10.777-2.3395 14.479 2.2206 2.1212 2.613 6.4328 9.5737 9.5813 15.468 5.6697 10.615 5.6858 10.746 1.6839 13.726-2.2223 1.6546-9.0409 4.3393-15.152 5.9659-6.1114 1.6266-19.795 5.6777-30.408 9.0024s-20.365 6.045-21.672 6.045c-1.3063 0-3.6977-2.0456-5.3143-4.5457z"/>
        <path id="path3183" fill="#f60" d="m147.11 391.61c-36.131-6.8528-36.365-6.9214-36.365-10.649 0-1.9704 3.5853-9.1297 7.9674-15.91l7.9674-12.327 14.761 1.033c20.786 1.4546 42.742 4.7106 44.653 6.622 1.6878 1.6877-7.1044 27.193-10.986 31.871-2.6953 3.2477-8.155 3.1228-27.997-0.64062z"/>
        <path id="path3185" fill="#f60" d="m186.34 274.19c-7.8688-7.4817-17.869-16.538-22.223-20.125l-7.9165-6.5214 5.0315-4.2973c6.3058-5.3857 23.083-13.975 27.297-13.975 7.2856 0 30.832 18.874 39.79 31.894l6.3064 9.1661-4.8483 3.9259c-6.0747 4.919-23.081 13.614-26.538 13.569-1.4259-0.0186-9.0306-6.1553-16.899-13.637z"/>
        <path id="path3187" fill="#f60" d="m344.61 220.78c-6.3379-1.6836-7.3951-2.7147-6.5176-6.3572 1.0723-4.4514 5.1264-45.15 5.3138-53.346 0.0851-3.7221 1.9977-5.0869 10.497-7.491 19.658-5.5602 21.843-5.8252 23.739-2.8784 1.7219 2.6773 0.74921 45.931-1.4373 63.913l-1.044 8.5863-11.493-0.20881c-6.3211-0.11483-14.897-1.1131-19.058-2.2184z"/>
        <path id="path3189" fill="#f60" d="m485.99 241.2c-14.672-12.576-15.142-14.436-6.3542-25.16 4.0984-5.0016 11.959-12.867 17.468-17.48l10.016-8.3858 8.748 4.7788c4.8114 2.6284 12.216 7.6902 16.454 11.249l7.7063 6.4698-18.4 18.4c-10.226 10.226-20.092 18.394-22.209 18.387-2.0947-0.007-8.1378-3.7237-13.429-8.259z"/>
        <path id="path3191" fill="#f60" d="m564.39 363.28c-3.7309-4.0725-8.6693-10.76-10.974-14.861l-4.1907-7.4564 7.5417-3.181c4.1479-1.7496 15.269-6.4409 24.714-10.425l17.173-7.2442 7.427 8.6187c4.0848 4.7403 8.8517 11.021 10.593 13.958l3.166 5.3394-22.715 11.334c-12.493 6.234-23.443 11.332-24.333 11.328-0.89003-0.003-4.6708-3.3384-8.4017-7.4109z"/>
        <path id="path3193" fill="#f60" d="m575.42 489.78c-26.362-7.6296-42.426-13.561-42.426-15.665 0-2.2956 14.215-26.222 16.906-28.455 3.5828-2.9735 10.312-1.4918 26.857 5.9133 6.8464 3.0643 16.392 6.2285 21.213 7.0315 13.234 2.2044 24.076 8.2775 22.494 12.6-1.2845 3.5096-16.519 26.895-17.339 26.616-0.23639-0.0804-12.703-3.6983-27.704-8.0398z"/>
    </g>
    <metadata>
        <rdf:RDF>
            <cc:Work>
                <dc:format>image/svg+xml</dc:format>
                <dc:type rdf:resource="http://purl.org/dc/dcmitype/StillImage"/>
                <cc:license rdf:resource="http://creativecommons.org/licenses/publicdomain/"/>
                <dc:publisher>
                    <cc:Agent rdf:about="http://openclipart.org/">
                        <dc:title>Openclipart</dc:title>
                    </cc:Agent>
                </dc:publisher>
                <dc:title>Idea</dc:title>
                <dc:date>2013-10-07T03:50:41</dc:date>
                <dc:description>idea symbol</dc:description>
                <dc:source>https://openclipart.org/detail/184655/idea-by-ijeyanthan-184655</dc:source>
                <dc:creator>
                    <cc:Agent>
                        <dc:title>ijeyanthan</dc:title>
                    </cc:Agent>
                </dc:creator>
                <dc:subject>
                    <rdf:Bag>
                        <rdf:li>bulb</rdf:li>
                        <rdf:li>glow</rdf:li>
                        <rdf:li>idea</rdf:li>
                        <rdf:li>think</rdf:li>
                    </rdf:Bag>
                </dc:subject>
            </cc:Work>
            <cc:License rdf:about="http://creativecommons.org/licenses/publicdomain/">
                <cc:permits rdf:resource="http://creativecommons.org/ns#Reproduction"/>
                <cc:permits rdf:resource="http://creativecommons.org/ns#Distribution"/>
                <cc:permits rdf:resource="http://creativecommons.org/ns#DerivativeWorks"/>
            </cc:License>
        </rdf:RDF>
    </metadata>
</svg>